<?xml version="1.0" encoding="UTF-8" standalone="no"?>
<svg
   xmlns:dc="http://purl.org/dc/elements/1.1/"
   xmlns:cc="http://creativecommons.org/ns#"
   xmlns:rdf="http://www.w3.org/1999/02/22-rdf-syntax-ns#"
   xmlns:svg="http://www.w3.org/2000/svg"
   xmlns="http://www.w3.org/2000/svg"
   xmlns:sodipodi="http://sodipodi.sourceforge.net/DTD/sodipodi-0.dtd"
   xmlns:inkscape="http://www.inkscape.org/namespaces/inkscape"
   width="1024"
   height="1024"
   viewBox="0 0 270.93334 270.93334"
   version="1.1"
   id="svg8"
   inkscape:version="1.0.2-2 (e86c870879, 2021-01-15)"
   sodipodi:docname="icon.svg">
  <defs
     id="defs2" />
  <sodipodi:namedview
     id="base"
     pagecolor="#ffffff"
     bordercolor="#666666"
     borderopacity="1.0"
     inkscape:pageopacity="0.0"
     inkscape:pageshadow="2"
     inkscape:zoom="0.7"
     inkscape:cx="380.53571"
     inkscape:cy="631.42857"
     inkscape:document-units="mm"
     inkscape:current-layer="g24"
     inkscape:document-rotation="0"
     showgrid="false"
     inkscape:window-width="1618"
     inkscape:window-height="1198"
     inkscape:window-x="658"
     inkscape:window-y="1548"
     inkscape:window-maximized="0"
     units="px" />
  <metadata
     id="metadata5">
    <rdf:RDF>
      <cc:Work
         rdf:about="">
        <dc:format>image/svg+xml</dc:format>
        <dc:type
           rdf:resource="http://purl.org/dc/dcmitype/StillImage" />
        <dc:title></dc:title>
      </cc:Work>
    </rdf:RDF>
  </metadata>
  <g
     inkscape:label="Layer 1"
     inkscape:groupmode="layer"
     id="layer1">
    <g
       id="g24"
       transform="matrix(10.198877,0,0,10.198877,-959.94084,-1390.8747)">
      <path
         style="fill:#b7c6b4;stroke-width:0.264583"
         d="m 102.11972,160.11416 -4.960939,-2.50083 v -1.52471 c 0,-1.2096 -0.143482,-1.73587 -0.694258,-2.54641 -0.591655,-0.8707 -0.67188,-1.21064 -0.542839,-2.30019 0.346013,-2.92154 0.538756,-3.21432 5.940776,-9.02402 2.81479,-3.02721 5.28416,-5.50402 5.48749,-5.50402 0.20334,0 1.30813,0.98227 2.45508,2.18282 8.36342,8.75418 8.68074,9.1875 8.96615,12.24383 0.14173,1.51776 0.0897,1.83901 -0.40618,2.50978 -0.41144,0.55649 -0.56984,1.15635 -0.57277,2.16901 -0.002,0.76987 -0.0915,1.53641 -0.19844,1.70341 -0.22963,0.3587 -9.76089,5.12678 -10.20721,5.10624 -0.16826,-0.008 -2.53835,-1.13946 -5.26686,-2.51491 z"
         id="path38" />
      <path
         style="fill:#98a397;stroke-width:0.264583"
         d="m 107.25163,162.02831 c -0.14678,-0.17687 -0.30483,-0.85503 -0.35122,-1.50702 l -0.0843,-1.18543 -4.48718,-2.2829 c -2.467949,-1.2556 -4.531699,-2.41646 -4.58611,-2.57969 -0.05441,-0.16323 -0.02815,-0.29679 0.05835,-0.29679 0.0865,0 2.169331,1.00735 4.62851,2.23854 3.80025,1.90262 4.51894,2.18105 4.78916,1.85546 0.17486,-0.2107 0.24996,-0.56022 0.16689,-0.7767 -0.0831,-0.21649 -2.64655,-1.64245 -5.69661,-3.1688 -3.050066,-1.52635 -5.604189,-2.87003 -5.675831,-2.98595 -0.07164,-0.11592 0.186559,-1.01267 0.573782,-1.99277 0.609638,-1.54306 1.218464,-2.33386 4.540499,-5.89765 2.11005,-2.26361 4.37621,-4.71724 5.03591,-5.45252 l 1.19946,-1.33687 5.12608,5.4757 c 4.65331,4.97069 5.18324,5.63319 5.74586,7.18317 0.60686,1.67187 0.82415,3.53548 0.41224,3.53548 -0.48711,0 -1.11538,1.61447 -1.11538,2.86619 0,0.87617 -0.14707,1.47641 -0.43142,1.76076 -0.3952,0.3952 -7.58272,4.10933 -8.98135,4.64109 -0.40003,0.15209 -0.68948,0.12095 -0.8673,-0.0933 z"
         id="path36" />
      <path
         style="fill:#82a37b;stroke-width:0.264583"
         d="m 107.69971,160.36134 c -0.0494,-0.80433 0.007,-1.63519 0.12567,-1.84636 0.21063,-0.37516 8.91591,-4.86766 9.43225,-4.86766 0.17081,0 0.17182,0.23447 0.003,0.67868 -0.14192,0.37328 -0.25804,1.17853 -0.25804,1.78945 v 1.11076 l -4.60646,2.29877 -4.60647,2.29878 z m -6.11479,-6.29875 c -3.614667,-1.8474 -5.67178,-3.03973 -5.522626,-3.201 0.13073,-0.14134 0.448117,-0.90503 0.705305,-1.69708 0.39677,-1.22193 1.031548,-2.04365 4.190001,-5.42396 2.04731,-2.19112 4.33424,-4.64119 5.08207,-5.44459 0.89147,-0.95773 1.44474,-1.36772 1.60671,-1.19062 0.13586,0.14855 2.4076,2.5895 5.0483,5.42433 4.28052,4.59518 4.87736,5.34814 5.50272,6.94209 0.60838,1.55065 0.65123,1.83809 0.32295,2.16637 -0.51563,0.51562 -10.42451,5.45887 -10.84174,5.40862 -0.18335,-0.0221 -2.92551,-1.36496 -6.09369,-2.98416 z"
         id="path34" />
      <path
         style="fill:#619756;stroke-width:0.264583"
         d="m 102.05357,154.00044 c -3.055935,-1.53648 -5.598415,-2.83237 -5.649954,-2.87974 -0.05154,-0.0474 0.129631,-0.75616 0.4026,-1.57506 0.43429,-1.30287 1.12092,-2.16315 5.494934,-6.88456 3.08708,-3.33225 5.11592,-5.32401 5.30533,-5.20834 0.16868,0.10301 2.4707,2.509 5.1156,5.34666 4.00503,4.29692 4.88115,5.38052 5.24114,6.48229 0.23774,0.72761 0.54248,1.46253 0.67721,1.63316 0.17562,0.22242 -1.32864,1.1025 -5.31372,3.10885 -3.05728,1.53924 -5.59428,2.79225 -5.63779,2.78448 -0.0435,-0.008 -2.57941,-1.27126 -5.63535,-2.80774 z"
         id="path32" />
      <path
         style="fill:#56874b;stroke-width:0.264583"
         d="m 107.00042,156.227 c -0.15253,-0.1819 -2.54782,-1.45904 -5.32286,-2.8381 -5.513494,-2.73993 -5.195317,-2.41597 -4.36545,-4.44474 l 0.354524,-0.86671 4.521216,2.26357 c 2.48667,1.24496 4.63459,2.1935 4.77316,2.10786 0.14963,-0.0925 0.25194,-3.10415 0.25194,-7.41614 0,-4.46971 0.0978,-7.26042 0.25438,-7.26042 0.1399,0 2.42773,2.32804 5.08405,5.17342 3.63571,3.89447 4.94636,5.48064 5.30166,6.41614 0.25959,0.6835 0.47207,1.39099 0.47219,1.5722 2e-4,0.29571 -10.24402,5.62365 -10.81278,5.62365 -0.12909,0 -0.3595,-0.14882 -0.51203,-0.33073 z"
         id="path30" />
      <path
         style="fill:#4d7844;stroke-width:0.264583"
         d="m 107.38934,156.11676 c -0.26509,-0.26508 -0.21203,-2.34126 0.0794,-3.10781 0.36534,-0.96091 9.17693,-5.40051 9.66906,-4.87163 0.59556,0.64003 1.18213,2.80476 0.83578,3.08448 -0.43633,0.35241 -9.91321,5.07135 -10.18459,5.07135 -0.1228,0 -0.30265,-0.0794 -0.39966,-0.17639 z"
         id="path28" />
      <path
         style="fill:#48733f;stroke-width:0.264583"
         d="m 107.74211,154.44254 v -1.58603 l 4.49498,-2.25043 c 2.47224,-1.23774 4.60417,-2.25043 4.73763,-2.25043 0.18612,0 1.08614,2.12077 1.08614,2.55935 0,0.0991 -9.98651,5.11357 -10.18381,5.11357 -0.0742,0 -0.13494,-0.71372 -0.13494,-1.58603 z"
         id="path26" />
    </g>
  </g>
</svg>
